<svg id="Layer_1" data-name="Layer 1" xmlns="http://www.w3.org/2000/svg" xmlns:xlink="http://www.w3.org/1999/xlink" viewBox="0 0 276.44 275.48"><defs><style>.cls-1{fill:none;}.cls-2{fill:#3862cb;}.cls-3{clip-path:url(#clip-path);}.cls-4{fill:#2c54b9;}.cls-5{fill:#f1f1f1;}.cls-6{fill:#c1c1c1;}</style><clipPath id="clip-path" transform="translate(0 0.13)"><ellipse class="cls-1" cx="127.85" cy="126.93" rx="117.57" ry="117.08"/></clipPath></defs><title>Messages</title><image width="512" height="512" transform="scale(0.5)" xlink:href="icon.png"/><ellipse class="cls-2" cx="127.63" cy="127.06" rx="117.79" ry="117.08"/><g class="cls-3"><rect class="cls-4" x="109.41" y="98.4" width="132.57" height="152.41" transform="translate(174.92 -72.97) rotate(45)"/></g><path class="cls-5" d="M47.84,68.81H164.77a32.05,32.05,0,0,1,32.06,32.05v53a32.05,32.05,0,0,1-32.06,32.05H90.58a32.05,32.05,0,0,1-32.06-32.05V106.31C55.94,95.67,25.6,69,47.84,68.81Z" transform="translate(0 0.13)"/><rect class="cls-6" x="85.1" y="92.92" width="85.48" height="16.13" rx="8.06"/><rect class="cls-6" x="85.1" y="119.56" width="85.48" height="16.13" rx="8.06"/><rect class="cls-6" x="85.1" y="146.2" width="53.23" height="16.13" rx="8.06"/></svg>